<svg xmlns="http://www.w3.org/2000/svg" width="14" height="14" fill="none" viewBox="0 0 14 14" id="Edit">
  <g clip-path="url(#clip0_2_698)" fill="#000000" class="color000000 svgShape">
    <path fill="#4e4e4e" fill-rule="evenodd" d="M8.29999 0.411996L1.07399 7.721L0.0739925 12.321C0.0243757 12.548 0.0326211 12.7838 0.0979704 13.0068C0.16332 13.2298 0.283676 13.4327 0.447973 13.597C0.61227 13.7613 0.815235 13.8817 1.03821 13.947C1.26118 14.0124 1.497 14.0206 1.72399 13.971L6.32399 12.971L13.56 5.65C13.8178 5.38945 13.9619 5.03747 13.961 4.67096C13.9601 4.30446 13.8141 3.95322 13.555 3.694L10.268 0.405996C10.1386 0.276739 9.98497 0.174323 9.81589 0.104635C9.64681 0.0349456 9.46562 -0.00064266 9.28275 -8.51014e-05C9.09987 0.000472457 8.9189 0.0371649 8.75025 0.107883C8.58159 0.178602 8.42858 0.281953 8.29999 0.411996ZM2.80999 12.465L1.57599 11.232L2.20599 8.339L5.70599 11.839L2.80999 12.465Z" clip-rule="evenodd" class="color444a58 svgShape"></path>
  </g>
  <defs>
    <clipPath id="clip0_2_698">
      <rect width="14" height="14" fill="#ffffff" class="colorffffff svgShape"></rect>
    </clipPath>
  </defs>
</svg>
