<svg id="SvgjsSvg1046" width="288" height="288" xmlns="http://www.w3.org/2000/svg" version="1.1" xmlns:xlink="http://www.w3.org/1999/xlink" xmlns:svgjs="http://svgjs.com/svgjs"><defs id="SvgjsDefs1047"></defs><g id="SvgjsG1048"><svg xmlns="http://www.w3.org/2000/svg" viewBox="0 0 512 512" width="288" height="288"><path d="M256,0C114.62,0,0,114.61,0,256s114.62,256,256,256,256-114.62,256-256S397.38,0,256,0Zm149.44,256c0,15.66-12.7,28.36-28.36,28.36h-92.72v92.72c0,15.66-12.7,28.36-28.36,28.36h0c-15.66,0-28.36-12.7-28.36-28.36v-92.72h-92.72c-15.66,0-28.36-12.7-28.36-28.36h0c0-15.66,12.7-28.36,28.36-28.36h92.72v-92.72c0-15.66,12.7-28.36,28.36-28.36h0c15.66,0,28.36,12.7,28.36,28.36v92.72h92.72c15.66,0,28.36,12.7,28.36,28.36h0Z" fill="#0064e0" class="svgShape color000000-0 selectable"></path></svg></g></svg>